<svg xmlns="http://www.w3.org/2000/svg" viewBox="0 0 256 256"><defs><style>.a{fill:#72c5a1;}.b{fill:#3fa9f5;}.c{fill:#666;}.d{fill:#f7931e;}.e{fill:#333;}</style></defs><title>icon</title><rect class="a" width="256" height="256"/><rect class="b" x="7.67" y="9.72" width="239.4" height="117.95"/><polygon class="c" points="42.78 20.53 7.67 55.16 7.67 128 104.59 128 104.59 81.49 96.97 73.98 42.78 20.53"/><circle class="d" cx="143.04" cy="70.67" r="27.5"/><polygon class="c" points="191.67 31.33 94 127.67 247.07 127.67 247.07 85.98 240.25 79.25 191.67 31.33"/><polygon class="e" points="106.35 52.67 22.36 127.67 190.33 127.67 106.35 52.67"/><rect class="b" x="59.13" y="100.47" width="185.27" height="148.17"/><circle class="d" cx="151.76" cy="174.56" r="30.68"/><polygon class="c" points="203.59 141.17 94.62 248.64 244.4 248.64 244.4 181.43 203.59 141.17"/><polygon class="e" points="108.4 164.97 59.13 208.97 59.13 248.64 202.1 248.64 108.4 164.97"/><path class="c" d="M300,183.47"/></svg>